# xmcd
#
# Track frame offsets:
#	165
#	13404
#	31055
#	47037
#	64290
#	80687
#	98760
#	116281
#	129319
#	145249
#	163552
#	178614
#	195301
#	208562
#	223195
#	237268
#	249767
#	265609
#	279224
#	296402
#	311830
#
# Disc length: 4350 seconds
#
# Revision: 0
# Processed by: cddbd v1.5.2PL0 Copyright (c) Steve Scherf et al.
# Submitted via: dBpowerAMP V4.0
#
DISCID=2510fc15
DTITLE=CEZAR E PAULINHO - GRANDES SUCESSOS
DYEAR=2004
DGENRE=Country
TTITLE0=ASA DELTA
TTITLE1=BOBOCA E BOBAO
TTITLE2=CORAÇAO MARCADO
TTITLE3=DONA DO MEU MUNDO
TTITLE4=DUAS VEZES VOCE
TTITLE5=EU E MEU PAI
TTITLE6=O FEIJÃO E A FLOR
TTITLE7=INDIFERENÇA
TTITLE8=MEL E MORANGO
TTITLE9=MENINO FOLGAZAO
TTITLE10=MORTO DE SAUDADE
TTITLE11=NAO ERA PRA ACONTECER
TTITLE12=NAO ME DEIXE
TTITLE13=NETO DE CARREIRO
TTITLE14=NOITE MARAVILHOSA
TTITLE15=PRAZER E SUOR
TTITLE16=SÓ POR VOCE
TTITLE17=TODA NOITE
TTITLE18=VIAJANTE SOLITÁRIO
TTITLE19=VOCE E LINDA
TTITLE20=VOCE E TUDO QUE PEDI PRA DEUS
EXTD=
EXTT0=
EXTT1=
EXTT2=
EXTT3=
EXTT4=
EXTT5=
EXTT6=
EXTT7=
EXTT8=
EXTT9=
EXTT10=
EXTT11=
EXTT12=
EXTT13=
EXTT14=
EXTT15=
EXTT16=
EXTT17=
EXTT18=
EXTT19=
EXTT20=
PLAYORDER=
